<svg width="422.639990234375px" height="123.51999511718749px" xmlns="http://www.w3.org/2000/svg" viewBox="38.68000488281251 13.240002441406254 422.639990234375 123.51999511718749" style="background: rgb(255, 255, 255) none repeat scroll 0% 0%;" preserveAspectRatio="xMidYMid"><defs><linearGradient id="editing-gradow-gradient" x1="0" x2="1" y1="0.5" y2="0.5" gradientUnits="objectBoundingBox"><stop offset="0" stop-color="#000000"></stop><stop offset="1" stop-color="#000000"></stop></linearGradient><filter id="editing-gradow-filter" x="-100%" y="-100%" width="300%" height="300%"><feFlood flood-color="#000000" result="flood"></feFlood><feComposite operator="in" in2="SourceAlpha" in="flood" result="shadow"></feComposite><feOffset dx="0" dy="-0.3" in="SourceGraphic" result="offset-1"></feOffset><feOffset dx="0" dy="0.3" in="shadow" result="offset-2"></feOffset><feMerge><feMergeNode in="offset-2"></feMergeNode><feMergeNode in="offset-1"></feMergeNode></feMerge></filter></defs><g filter="url(#editing-gradow-filter)"><g transform="translate(140.01500153541565, 99)"><path d="M14.21 0L0.51 0L8.32-42.05L8.32-42.05Q14.66-42.75 23.90-42.75L23.90-42.75L23.90-42.75Q33.15-42.75 37.44-40.06L37.44-40.06L37.44-40.06Q41.73-37.38 41.73-31.97L41.73-31.97L41.73-31.97Q41.73-26.56 38.94-23.17L38.94-23.17L38.94-23.17Q36.16-19.78 31.36-18.69L31.36-18.69L31.36-18.69Q32.45-13.38 34.94-9.09L34.94-9.09L34.94-9.09Q37.25-5.06 39.94-3.78L39.94-3.78L39.94-3.78Q38.98-1.09 37.02 0.10L37.02 0.10L37.02 0.10Q35.07 1.28 32.29 1.28L32.29 1.28L32.29 1.28Q29.50 1.28 27.33-0.35L27.33-0.35L27.33-0.35Q25.15-1.98 23.42-4.99L23.42-4.99L23.42-4.99Q19.78-11.52 19.39-21.82L19.39-21.82L19.84-21.82L19.84-21.82Q24.58-21.95 26.94-24.42L26.94-24.42L26.94-24.42Q29.31-26.88 29.31-32.06L29.31-32.06L29.31-32.06Q29.31-38.53 23.87-38.78L23.87-38.78L22.46-38.78L22.46-38.78Q21.89-38.78 21.57-38.72L21.57-38.72L14.21 0ZM70.59-10.82L70.59-10.82L70.59-10.82Q72.19-9.73 72.19-7.33L72.19-7.33L72.19-7.33Q72.19-4.93 70.98-3.39L70.98-3.39L70.98-3.39Q69.76-1.86 67.78-0.83L67.78-0.83L67.78-0.83Q63.68 1.28 59.26 1.28L59.26 1.28L59.26 1.28Q54.85 1.28 52.26 0.32L52.26 0.32L52.26 0.32Q49.66-0.64 47.94-2.43L47.94-2.43L47.94-2.43Q44.54-5.82 44.54-12.03L44.54-12.03L44.54-12.03Q44.54-21.70 49.79-27.58L49.79-27.58L49.79-27.58Q55.42-33.92 65.22-33.92L65.22-33.92L65.22-33.92Q71.30-33.92 74.30-31.36L74.30-31.36L74.30-31.36Q76.54-29.44 76.54-26.30L76.54-26.30L76.54-26.30Q76.54-15.04 57.09-15.04L57.09-15.04L57.09-15.04Q56.83-13.38 56.83-11.97L56.83-11.97L56.83-11.97Q56.83-9.02 58.14-7.90L58.14-7.90L58.14-7.90Q59.46-6.78 61.89-6.78L61.89-6.78L61.89-6.78Q64.32-6.78 66.91-7.90L66.91-7.90L66.91-7.90Q69.50-9.02 70.59-10.82ZM57.54-17.79L57.54-17.79L57.54-17.79Q62.08-17.79 64.70-20.61L64.70-20.61L64.70-20.61Q67.33-23.30 67.33-27.58L67.33-27.58L67.33-27.58Q67.33-29.06 66.78-29.86L66.78-29.86L66.78-29.86Q66.24-30.66 65.15-30.66L65.15-30.66L65.15-30.66Q64.06-30.66 63.14-30.24L63.14-30.24L63.14-30.24Q62.21-29.82 61.25-28.42L61.25-28.42L61.25-28.42Q58.88-25.22 57.54-17.79ZM110.14-26.62L110.14-26.62L110.14-26.62Q110.14-23.94 107.90-22.27L107.90-22.27L107.90-22.27Q105.66-20.61 102.02-20.61L102.02-20.61L102.02-20.61Q100.48-20.61 99.58-21.06L99.58-21.06L99.58-21.06Q100.29-22.72 100.51-24.80L100.51-24.80L100.51-24.80Q100.74-26.88 100.74-27.46L100.74-27.46L100.74-27.46Q100.74-30.14 98.88-30.14L98.88-30.14L98.88-30.14Q97.60-30.14 96.16-28.54L96.16-28.54L96.16-28.54Q94.72-26.94 93.50-24.45L93.50-24.45L93.50-24.45Q90.82-18.69 90.82-12.86L90.82-12.86L90.82-12.86Q90.82-9.66 92.03-8.22L92.03-8.22L92.03-8.22Q93.25-6.78 95.94-6.78L95.94-6.78L95.94-6.78Q99.65-6.78 102.59-9.86L102.59-9.86L102.59-9.86Q103.42-10.82 103.87-11.90L103.87-11.90L103.87-11.90Q106.30-10.62 106.30-7.10L106.30-7.10L106.30-7.10Q106.30-3.52 102.34-1.15L102.34-1.15L102.34-1.15Q98.24 1.28 91.71 1.28L91.71 1.28L91.71 1.28Q78.72 1.28 78.72-12.48L78.72-12.48L78.72-12.48Q78.72-22.53 84.42-28.29L84.42-28.29L84.42-28.29Q89.92-33.92 100.03-33.92L100.03-33.92L100.03-33.92Q110.14-33.92 110.14-26.62ZM138.62-9.86L138.62-9.86L138.62-9.86Q139.84-8.32 139.84-5.34L139.84-5.34L139.84-5.34Q139.84-2.37 137.57-0.54L137.57-0.54L137.57-0.54Q135.30 1.28 131.33 1.28L131.33 1.28L131.33 1.28Q129.02 1.28 125.44 0.77L125.44 0.77L125.44 0.77Q118.40-0.32 116.38-0.32L116.38-0.32L116.38-0.32Q114.37-0.32 113.54-0.22L113.54-0.22L113.54-0.22Q112.70-0.13 111.36 0L111.36 0L119.10-42.24L133.12-42.24L126.72-7.04L126.72-7.04Q127.55-6.91 128.32-6.91L128.32-6.91L129.92-6.91L129.92-6.91Q135.30-6.91 138.62-9.86ZM159.49-3.52L159.49-3.52L159.49-3.52Q157.50 1.28 151.17 1.28L151.17 1.28L151.17 1.28Q147.90 1.28 145.86-0.96L145.86-0.96L145.86-0.96Q144.13-2.94 144.13-4.93L144.13-4.93L144.13-4.93Q144.13-10.11 146.50-20.22L146.50-20.22L148.86-32.64L161.86-33.92L157.95-13.70L157.95-13.70Q156.86-8.96 156.86-7.30L156.86-7.30L156.86-7.30Q156.86-3.65 159.49-3.52ZM150.02-41.54L150.02-41.54L150.02-41.54Q150.02-44.03 152.10-45.38L152.10-45.38L152.10-45.38Q154.18-46.72 157.18-46.72L157.18-46.72L157.18-46.72Q160.19-46.72 162.02-45.38L162.02-45.38L162.02-45.38Q163.84-44.03 163.84-41.54L163.84-41.54L163.84-41.54Q163.84-39.04 161.82-37.76L161.82-37.76L161.82-37.76Q159.81-36.48 156.80-36.48L156.80-36.48L156.80-36.48Q153.79-36.48 151.90-37.76L151.90-37.76L151.90-37.76Q150.02-39.04 150.02-41.54ZM184.06-22.46L184.06-22.46L184.06-22.46Q184.96-24.83 184.96-26.88L184.96-26.88L184.96-26.88Q184.96-30.66 181.89-30.66L181.89-30.66L181.89-30.66Q180.29-30.66 178.98-29.22L178.98-29.22L178.98-29.22Q177.66-27.78 177.66-25.98L177.66-25.98L177.66-25.98Q177.66-24.70 178.69-23.68L178.69-23.68L178.69-23.68Q180.16-22.27 183.94-19.97L183.94-19.97L183.94-19.97Q187.71-17.66 189.15-15.78L189.15-15.78L189.15-15.78Q190.59-13.89 190.59-11.30L190.59-11.30L190.59-11.30Q190.59-8.70 189.34-6.34L189.34-6.34L189.34-6.34Q188.10-3.97 185.86-2.30L185.86-2.30L185.86-2.30Q181.06 1.28 173.38 1.28L173.38 1.28L173.38 1.28Q169.22 1.28 166.02-0.90L166.02-0.90L166.02-0.90Q162.82-3.01 162.82-5.50L162.82-5.50L162.82-5.50Q162.82-8 164.64-9.47L164.64-9.47L164.64-9.47Q166.46-10.94 169.15-10.94L169.15-10.94L169.15-10.94Q171.84-10.94 173.50-9.92L173.50-9.92L173.50-9.92Q172.67-7.81 172.67-6.40L172.67-6.40L172.67-6.40Q172.67-2.18 176.26-2.18L176.26-2.18L176.26-2.18Q177.79-2.18 178.82-3.14L178.82-3.14L178.82-3.14Q179.84-4.10 179.84-5.76L179.84-5.76L179.84-5.76Q179.84-9.02 174.34-12.48L174.34-12.48L174.34-12.48Q169.86-15.42 168.83-16.58L168.83-16.58L168.83-16.58Q167.10-18.62 167.10-21.18L167.10-21.18L167.10-21.18Q167.10-23.74 168.32-26.18L168.32-26.18L168.32-26.18Q169.54-28.61 171.78-30.34L171.78-30.34L171.78-30.34Q176.45-33.92 184.58-33.92L184.58-33.92L184.58-33.92Q188.74-33.92 191.20-32.26L191.20-32.26L191.20-32.26Q193.66-30.59 193.66-27.78L193.66-27.78L193.66-27.78Q193.66-24.96 191.97-23.36L191.97-23.36L191.97-23.36Q190.27-21.76 187.20-21.76L187.20-21.76L187.20-21.76Q185.09-21.76 184.06-22.46ZM197.06-6.40L197.06-6.40L197.06-6.40Q197.06-8.13 197.95-12.48L197.95-12.48L201.34-29.76L197.57-29.76L197.82-31.68L197.82-31.68Q205.50-33.98 212.93-39.62L212.93-39.62L216.00-39.62L214.46-32.64L219.46-32.64L218.88-29.76L213.95-29.76L210.69-12.48L210.69-12.48Q209.86-8.51 209.86-7.17L209.86-7.17L209.86-7.17Q209.86-4.10 212.54-3.46L212.54-3.46L212.54-3.46Q211.90-1.28 209.60 0L209.60 0L209.60 0Q207.30 1.28 204.03 1.28L204.03 1.28L204.03 1.28Q200.77 1.28 198.91-0.77L198.91-0.77L198.91-0.77Q197.06-2.82 197.06-6.40Z" fill="url(#editing-gradow-gradient)"></path></g></g><style>text {
  font-size: 64px;
  font-family: Arial Black;
  dominant-baseline: central;
  text-anchor: middle;
}</style></svg>